<mxfile host="app.diagrams.net" modified="2023-07-08T15:52:07.936Z" agent="Mozilla/5.0 (Windows NT 10.0; Win64; x64) AppleWebKit/537.36 (KHTML, like Gecko) Chrome/114.0.0.0 Safari/537.36" etag="twO5yfq38pQMCCP5Jfxe" version="21.6.1" type="device">
  <diagram id="C5RBs43oDa-KdzZeNtuy" name="Page-1">
    <mxGraphModel dx="996" dy="1564" grid="1" gridSize="10" guides="1" tooltips="1" connect="1" arrows="1" fold="1" page="1" pageScale="1" pageWidth="827" pageHeight="1169" math="0" shadow="0">
      <root>
        <mxCell id="WIyWlLk6GJQsqaUBKTNV-0" />
        <mxCell id="WIyWlLk6GJQsqaUBKTNV-1" parent="WIyWlLk6GJQsqaUBKTNV-0" />
        <mxCell id="XhDEkzcHzIU6UexOxhh8-0" value="Reservation" style="swimlane;fontStyle=1;align=center;verticalAlign=top;childLayout=stackLayout;horizontal=1;startSize=30;horizontalStack=0;resizeParent=1;resizeParentMax=0;resizeLast=0;collapsible=1;marginBottom=0;whiteSpace=wrap;html=1;" parent="WIyWlLk6GJQsqaUBKTNV-1" vertex="1">
          <mxGeometry x="100" y="-210" width="160" height="150" as="geometry" />
        </mxCell>
        <mxCell id="XhDEkzcHzIU6UexOxhh8-1" value="+reservationId: int&lt;br&gt;+BookCode: int&lt;br&gt;+UserId: int" style="text;strokeColor=none;fillColor=none;align=left;verticalAlign=top;spacingLeft=4;spacingRight=4;overflow=hidden;rotatable=0;points=[[0,0.5],[1,0.5]];portConstraint=eastwest;whiteSpace=wrap;html=1;" parent="XhDEkzcHzIU6UexOxhh8-0" vertex="1">
          <mxGeometry y="30" width="160" height="50" as="geometry" />
        </mxCell>
        <mxCell id="XhDEkzcHzIU6UexOxhh8-2" value="" style="line;strokeWidth=1;fillColor=none;align=left;verticalAlign=middle;spacingTop=-1;spacingLeft=3;spacingRight=3;rotatable=0;labelPosition=right;points=[];portConstraint=eastwest;strokeColor=inherit;" parent="XhDEkzcHzIU6UexOxhh8-0" vertex="1">
          <mxGeometry y="80" width="160" height="8" as="geometry" />
        </mxCell>
        <mxCell id="XhDEkzcHzIU6UexOxhh8-3" value="+SetReservationId()&lt;br&gt;+GetBookCode()&lt;br&gt;+GetUserId()" style="text;strokeColor=none;fillColor=none;align=left;verticalAlign=top;spacingLeft=4;spacingRight=4;overflow=hidden;rotatable=0;points=[[0,0.5],[1,0.5]];portConstraint=eastwest;whiteSpace=wrap;html=1;" parent="XhDEkzcHzIU6UexOxhh8-0" vertex="1">
          <mxGeometry y="88" width="160" height="62" as="geometry" />
        </mxCell>
        <mxCell id="XhDEkzcHzIU6UexOxhh8-4" value="Librarian" style="swimlane;fontStyle=1;align=center;verticalAlign=top;childLayout=stackLayout;horizontal=1;startSize=30;horizontalStack=0;resizeParent=1;resizeParentMax=0;resizeLast=0;collapsible=1;marginBottom=0;whiteSpace=wrap;html=1;" parent="WIyWlLk6GJQsqaUBKTNV-1" vertex="1">
          <mxGeometry x="615" y="-300" width="160" height="210" as="geometry" />
        </mxCell>
        <mxCell id="XhDEkzcHzIU6UexOxhh8-5" value="+LibrarianId: int&lt;br&gt;+Name: string" style="text;strokeColor=none;fillColor=none;align=left;verticalAlign=top;spacingLeft=4;spacingRight=4;overflow=hidden;rotatable=0;points=[[0,0.5],[1,0.5]];portConstraint=eastwest;whiteSpace=wrap;html=1;" parent="XhDEkzcHzIU6UexOxhh8-4" vertex="1">
          <mxGeometry y="30" width="160" height="50" as="geometry" />
        </mxCell>
        <mxCell id="XhDEkzcHzIU6UexOxhh8-6" value="" style="line;strokeWidth=1;fillColor=none;align=left;verticalAlign=middle;spacingTop=-1;spacingLeft=3;spacingRight=3;rotatable=0;labelPosition=right;points=[];portConstraint=eastwest;strokeColor=inherit;" parent="XhDEkzcHzIU6UexOxhh8-4" vertex="1">
          <mxGeometry y="80" width="160" height="8" as="geometry" />
        </mxCell>
        <mxCell id="XhDEkzcHzIU6UexOxhh8-7" value="+IssueBooks()&lt;br&gt;+ManageReservation()&lt;br&gt;+ManageMembers()&lt;br&gt;+GenerateReports()&lt;br&gt;+DeleteBook()&lt;br&gt;+AddNewBook()" style="text;strokeColor=none;fillColor=none;align=left;verticalAlign=top;spacingLeft=4;spacingRight=4;overflow=hidden;rotatable=0;points=[[0,0.5],[1,0.5]];portConstraint=eastwest;whiteSpace=wrap;html=1;" parent="XhDEkzcHzIU6UexOxhh8-4" vertex="1">
          <mxGeometry y="88" width="160" height="122" as="geometry" />
        </mxCell>
        <mxCell id="XhDEkzcHzIU6UexOxhh8-8" value="Book" style="swimlane;fontStyle=1;align=center;verticalAlign=top;childLayout=stackLayout;horizontal=1;startSize=30;horizontalStack=0;resizeParent=1;resizeParentMax=0;resizeLast=0;collapsible=1;marginBottom=0;whiteSpace=wrap;html=1;" parent="WIyWlLk6GJQsqaUBKTNV-1" vertex="1">
          <mxGeometry x="615" y="20" width="160" height="176" as="geometry" />
        </mxCell>
        <mxCell id="XhDEkzcHzIU6UexOxhh8-9" value="+BookCode: int&lt;br&gt;+BookName: string&lt;br&gt;+BookStatus: Boolean&lt;br&gt;+BookAuthor: string" style="text;strokeColor=none;fillColor=none;align=left;verticalAlign=top;spacingLeft=4;spacingRight=4;overflow=hidden;rotatable=0;points=[[0,0.5],[1,0.5]];portConstraint=eastwest;whiteSpace=wrap;html=1;" parent="XhDEkzcHzIU6UexOxhh8-8" vertex="1">
          <mxGeometry y="30" width="160" height="80" as="geometry" />
        </mxCell>
        <mxCell id="XhDEkzcHzIU6UexOxhh8-10" value="" style="line;strokeWidth=1;fillColor=none;align=left;verticalAlign=middle;spacingTop=-1;spacingLeft=3;spacingRight=3;rotatable=0;labelPosition=right;points=[];portConstraint=eastwest;strokeColor=inherit;" parent="XhDEkzcHzIU6UexOxhh8-8" vertex="1">
          <mxGeometry y="110" width="160" height="8" as="geometry" />
        </mxCell>
        <mxCell id="XhDEkzcHzIU6UexOxhh8-11" value="+DisplayBookDetails()&lt;br&gt;+inquiryBook()&lt;br&gt;+UpdateStatus()" style="text;strokeColor=none;fillColor=none;align=left;verticalAlign=top;spacingLeft=4;spacingRight=4;overflow=hidden;rotatable=0;points=[[0,0.5],[1,0.5]];portConstraint=eastwest;whiteSpace=wrap;html=1;" parent="XhDEkzcHzIU6UexOxhh8-8" vertex="1">
          <mxGeometry y="118" width="160" height="58" as="geometry" />
        </mxCell>
        <mxCell id="XhDEkzcHzIU6UexOxhh8-12" value="Student" style="swimlane;fontStyle=1;align=center;verticalAlign=top;childLayout=stackLayout;horizontal=1;startSize=30;horizontalStack=0;resizeParent=1;resizeParentMax=0;resizeLast=0;collapsible=1;marginBottom=0;whiteSpace=wrap;html=1;" parent="WIyWlLk6GJQsqaUBKTNV-1" vertex="1">
          <mxGeometry x="80" y="110" width="160" height="190" as="geometry" />
        </mxCell>
        <mxCell id="XhDEkzcHzIU6UexOxhh8-13" value="+studentId : int&lt;br&gt;+major: string&lt;br&gt;+username: string&lt;br&gt;+phoneNo: int" style="text;strokeColor=none;fillColor=none;align=left;verticalAlign=top;spacingLeft=4;spacingRight=4;overflow=hidden;rotatable=0;points=[[0,0.5],[1,0.5]];portConstraint=eastwest;whiteSpace=wrap;html=1;" parent="XhDEkzcHzIU6UexOxhh8-12" vertex="1">
          <mxGeometry y="30" width="160" height="80" as="geometry" />
        </mxCell>
        <mxCell id="XhDEkzcHzIU6UexOxhh8-14" value="" style="line;strokeWidth=1;fillColor=none;align=left;verticalAlign=middle;spacingTop=-1;spacingLeft=3;spacingRight=3;rotatable=0;labelPosition=right;points=[];portConstraint=eastwest;strokeColor=inherit;" parent="XhDEkzcHzIU6UexOxhh8-12" vertex="1">
          <mxGeometry y="110" width="160" height="8" as="geometry" />
        </mxCell>
        <mxCell id="XhDEkzcHzIU6UexOxhh8-15" value="+ReturnBook()&lt;br&gt;+RequestBook()&lt;br&gt;+RenewBook()&lt;br&gt;+PayFine()" style="text;strokeColor=none;fillColor=none;align=left;verticalAlign=top;spacingLeft=4;spacingRight=4;overflow=hidden;rotatable=0;points=[[0,0.5],[1,0.5]];portConstraint=eastwest;whiteSpace=wrap;html=1;" parent="XhDEkzcHzIU6UexOxhh8-12" vertex="1">
          <mxGeometry y="118" width="160" height="72" as="geometry" />
        </mxCell>
        <mxCell id="XhDEkzcHzIU6UexOxhh8-16" value="Admin" style="swimlane;fontStyle=1;align=center;verticalAlign=top;childLayout=stackLayout;horizontal=1;startSize=30;horizontalStack=0;resizeParent=1;resizeParentMax=0;resizeLast=0;collapsible=1;marginBottom=0;whiteSpace=wrap;html=1;" parent="WIyWlLk6GJQsqaUBKTNV-1" vertex="1">
          <mxGeometry x="280" y="110" width="160" height="210" as="geometry" />
        </mxCell>
        <mxCell id="XhDEkzcHzIU6UexOxhh8-17" value="+usernameId: int&lt;br&gt;+email: string&lt;br&gt;+password: string" style="text;strokeColor=none;fillColor=none;align=left;verticalAlign=top;spacingLeft=4;spacingRight=4;overflow=hidden;rotatable=0;points=[[0,0.5],[1,0.5]];portConstraint=eastwest;whiteSpace=wrap;html=1;" parent="XhDEkzcHzIU6UexOxhh8-16" vertex="1">
          <mxGeometry y="30" width="160" height="80" as="geometry" />
        </mxCell>
        <mxCell id="XhDEkzcHzIU6UexOxhh8-18" value="" style="line;strokeWidth=1;fillColor=none;align=left;verticalAlign=middle;spacingTop=-1;spacingLeft=3;spacingRight=3;rotatable=0;labelPosition=right;points=[];portConstraint=eastwest;strokeColor=inherit;" parent="XhDEkzcHzIU6UexOxhh8-16" vertex="1">
          <mxGeometry y="110" width="160" height="8" as="geometry" />
        </mxCell>
        <mxCell id="XhDEkzcHzIU6UexOxhh8-19" value="+Logins()&lt;br style=&quot;border-color: var(--border-color);&quot;&gt;+ManageLibrarianDetails()&lt;br style=&quot;border-color: var(--border-color);&quot;&gt;+ManageMembers()&lt;br style=&quot;border-color: var(--border-color);&quot;&gt;+GenerateReports()&lt;br style=&quot;border-color: var(--border-color);&quot;&gt;+ManageBooks()&lt;br style=&quot;border-color: var(--border-color);&quot;&gt;" style="text;strokeColor=none;fillColor=none;align=left;verticalAlign=top;spacingLeft=4;spacingRight=4;overflow=hidden;rotatable=0;points=[[0,0.5],[1,0.5]];portConstraint=eastwest;whiteSpace=wrap;html=1;" parent="XhDEkzcHzIU6UexOxhh8-16" vertex="1">
          <mxGeometry y="118" width="160" height="92" as="geometry" />
        </mxCell>
        <mxCell id="XhDEkzcHzIU6UexOxhh8-20" value="USER" style="html=1;align=center;verticalAlign=top;rounded=1;absoluteArcSize=1;arcSize=10;dashed=0;whiteSpace=wrap;" parent="WIyWlLk6GJQsqaUBKTNV-1" vertex="1">
          <mxGeometry x="190" y="-15" width="140" height="40" as="geometry" />
        </mxCell>
        <mxCell id="XhDEkzcHzIU6UexOxhh8-21" value="" style="endArrow=none;html=1;rounded=0;exitX=1;exitY=0.5;exitDx=0;exitDy=0;entryX=0;entryY=0.5;entryDx=0;entryDy=0;" parent="WIyWlLk6GJQsqaUBKTNV-1" source="XhDEkzcHzIU6UexOxhh8-20" target="XhDEkzcHzIU6UexOxhh8-22" edge="1">
          <mxGeometry width="50" height="50" relative="1" as="geometry">
            <mxPoint x="480" y="130" as="sourcePoint" />
            <mxPoint x="580" y="40" as="targetPoint" />
          </mxGeometry>
        </mxCell>
        <mxCell id="XhDEkzcHzIU6UexOxhh8-22" value="" style="rhombus;whiteSpace=wrap;html=1;" parent="WIyWlLk6GJQsqaUBKTNV-1" vertex="1">
          <mxGeometry x="585" y="25" width="30" height="30" as="geometry" />
        </mxCell>
        <mxCell id="XhDEkzcHzIU6UexOxhh8-24" value="" style="endArrow=none;html=1;rounded=0;exitX=0.459;exitY=0.008;exitDx=0;exitDy=0;entryX=0.5;entryY=1;entryDx=0;entryDy=0;entryPerimeter=0;exitPerimeter=0;" parent="WIyWlLk6GJQsqaUBKTNV-1" source="XhDEkzcHzIU6UexOxhh8-8" target="XhDEkzcHzIU6UexOxhh8-25" edge="1">
          <mxGeometry width="50" height="50" relative="1" as="geometry">
            <mxPoint x="480" y="-140" as="sourcePoint" />
            <mxPoint x="695" y="-80" as="targetPoint" />
          </mxGeometry>
        </mxCell>
        <mxCell id="XhDEkzcHzIU6UexOxhh8-48" value="issues" style="edgeLabel;html=1;align=center;verticalAlign=middle;resizable=0;points=[];" parent="XhDEkzcHzIU6UexOxhh8-24" vertex="1" connectable="0">
          <mxGeometry x="0.155" y="2" relative="1" as="geometry">
            <mxPoint as="offset" />
          </mxGeometry>
        </mxCell>
        <mxCell id="XhDEkzcHzIU6UexOxhh8-25" value="" style="shape=image;html=1;verticalAlign=top;verticalLabelPosition=bottom;labelBackgroundColor=#ffffff;imageAspect=0;aspect=fixed;image=https://cdn2.iconfinder.com/data/icons/boxicons-solid-vol-1/24/bxs-diamond-128.png" parent="WIyWlLk6GJQsqaUBKTNV-1" vertex="1">
          <mxGeometry x="680" y="-100" width="20" height="20" as="geometry" />
        </mxCell>
        <mxCell id="XhDEkzcHzIU6UexOxhh8-28" value="" style="endArrow=none;html=1;rounded=0;" parent="WIyWlLk6GJQsqaUBKTNV-1" edge="1">
          <mxGeometry width="50" height="50" relative="1" as="geometry">
            <mxPoint x="145" y="110" as="sourcePoint" />
            <mxPoint x="145" y="60" as="targetPoint" />
          </mxGeometry>
        </mxCell>
        <mxCell id="XhDEkzcHzIU6UexOxhh8-32" value="" style="endArrow=none;html=1;rounded=0;entryX=0.563;entryY=0;entryDx=0;entryDy=0;entryPerimeter=0;" parent="WIyWlLk6GJQsqaUBKTNV-1" target="XhDEkzcHzIU6UexOxhh8-16" edge="1">
          <mxGeometry width="50" height="50" relative="1" as="geometry">
            <mxPoint x="370" y="60" as="sourcePoint" />
            <mxPoint x="530" y="60" as="targetPoint" />
          </mxGeometry>
        </mxCell>
        <mxCell id="XhDEkzcHzIU6UexOxhh8-33" value="" style="endArrow=none;html=1;rounded=0;" parent="WIyWlLk6GJQsqaUBKTNV-1" edge="1">
          <mxGeometry width="50" height="50" relative="1" as="geometry">
            <mxPoint x="150" y="60" as="sourcePoint" />
            <mxPoint x="370" y="60" as="targetPoint" />
          </mxGeometry>
        </mxCell>
        <mxCell id="XhDEkzcHzIU6UexOxhh8-34" value="" style="endArrow=classic;html=1;rounded=0;entryX=0.5;entryY=1;entryDx=0;entryDy=0;" parent="WIyWlLk6GJQsqaUBKTNV-1" target="XhDEkzcHzIU6UexOxhh8-20" edge="1">
          <mxGeometry width="50" height="50" relative="1" as="geometry">
            <mxPoint x="260" y="60" as="sourcePoint" />
            <mxPoint x="530" y="60" as="targetPoint" />
          </mxGeometry>
        </mxCell>
        <mxCell id="XhDEkzcHzIU6UexOxhh8-35" value="" style="endArrow=none;html=1;rounded=0;entryX=0.052;entryY=1.051;entryDx=0;entryDy=0;entryPerimeter=0;" parent="WIyWlLk6GJQsqaUBKTNV-1" target="XhDEkzcHzIU6UexOxhh8-3" edge="1">
          <mxGeometry width="50" height="50" relative="1" as="geometry">
            <mxPoint x="108" y="10" as="sourcePoint" />
            <mxPoint x="140" y="-60" as="targetPoint" />
          </mxGeometry>
        </mxCell>
        <mxCell id="XhDEkzcHzIU6UexOxhh8-37" value="Request Reservation" style="edgeLabel;html=1;align=center;verticalAlign=middle;resizable=0;points=[];" parent="XhDEkzcHzIU6UexOxhh8-35" vertex="1" connectable="0">
          <mxGeometry x="-0.284" y="-5" relative="1" as="geometry">
            <mxPoint as="offset" />
          </mxGeometry>
        </mxCell>
        <mxCell id="XhDEkzcHzIU6UexOxhh8-36" value="" style="endArrow=none;html=1;rounded=0;" parent="WIyWlLk6GJQsqaUBKTNV-1" edge="1">
          <mxGeometry width="50" height="50" relative="1" as="geometry">
            <mxPoint x="110" y="10" as="sourcePoint" />
            <mxPoint x="190" y="10" as="targetPoint" />
          </mxGeometry>
        </mxCell>
        <mxCell id="XhDEkzcHzIU6UexOxhh8-38" value="" style="endArrow=none;html=1;rounded=0;entryX=0.01;entryY=0.114;entryDx=0;entryDy=0;entryPerimeter=0;exitX=0.75;exitY=0;exitDx=0;exitDy=0;" parent="WIyWlLk6GJQsqaUBKTNV-1" source="XhDEkzcHzIU6UexOxhh8-20" target="XhDEkzcHzIU6UexOxhh8-4" edge="1">
          <mxGeometry width="50" height="50" relative="1" as="geometry">
            <mxPoint x="480" y="-170" as="sourcePoint" />
            <mxPoint x="530" y="-220" as="targetPoint" />
          </mxGeometry>
        </mxCell>
        <mxCell id="XhDEkzcHzIU6UexOxhh8-39" value="Manages" style="edgeLabel;html=1;align=center;verticalAlign=middle;resizable=0;points=[];" parent="XhDEkzcHzIU6UexOxhh8-38" vertex="1" connectable="0">
          <mxGeometry x="-0.2596" y="2" relative="1" as="geometry">
            <mxPoint as="offset" />
          </mxGeometry>
        </mxCell>
        <mxCell id="XhDEkzcHzIU6UexOxhh8-40" value="" style="endArrow=none;html=1;rounded=0;" parent="WIyWlLk6GJQsqaUBKTNV-1" edge="1">
          <mxGeometry width="50" height="50" relative="1" as="geometry">
            <mxPoint x="180" y="-350" as="sourcePoint" />
            <mxPoint x="710" y="-350" as="targetPoint" />
          </mxGeometry>
        </mxCell>
        <mxCell id="XhDEkzcHzIU6UexOxhh8-41" value="" style="endArrow=none;html=1;rounded=0;entryX=0.595;entryY=0.008;entryDx=0;entryDy=0;entryPerimeter=0;" parent="WIyWlLk6GJQsqaUBKTNV-1" target="XhDEkzcHzIU6UexOxhh8-4" edge="1">
          <mxGeometry width="50" height="50" relative="1" as="geometry">
            <mxPoint x="710" y="-350" as="sourcePoint" />
            <mxPoint x="720" y="-340" as="targetPoint" />
          </mxGeometry>
        </mxCell>
        <mxCell id="XhDEkzcHzIU6UexOxhh8-42" value="" style="endArrow=none;html=1;rounded=0;entryX=0.5;entryY=0;entryDx=0;entryDy=0;" parent="WIyWlLk6GJQsqaUBKTNV-1" target="XhDEkzcHzIU6UexOxhh8-0" edge="1">
          <mxGeometry width="50" height="50" relative="1" as="geometry">
            <mxPoint x="179.5" y="-351" as="sourcePoint" />
            <mxPoint x="179.5" y="-300" as="targetPoint" />
          </mxGeometry>
        </mxCell>
        <mxCell id="XhDEkzcHzIU6UexOxhh8-43" value="Issue Reservation" style="text;html=1;align=center;verticalAlign=middle;resizable=0;points=[];autosize=1;strokeColor=none;fillColor=none;" parent="WIyWlLk6GJQsqaUBKTNV-1" vertex="1">
          <mxGeometry x="280" y="-372" width="120" height="30" as="geometry" />
        </mxCell>
        <mxCell id="XhDEkzcHzIU6UexOxhh8-44" value="1" style="text;html=1;align=center;verticalAlign=middle;resizable=0;points=[];autosize=1;strokeColor=none;fillColor=none;" parent="WIyWlLk6GJQsqaUBKTNV-1" vertex="1">
          <mxGeometry x="585" y="55" width="30" height="30" as="geometry" />
        </mxCell>
        <mxCell id="XhDEkzcHzIU6UexOxhh8-45" value="*" style="text;html=1;align=center;verticalAlign=middle;resizable=0;points=[];autosize=1;strokeColor=none;fillColor=none;" parent="WIyWlLk6GJQsqaUBKTNV-1" vertex="1">
          <mxGeometry x="325" y="8" width="30" height="30" as="geometry" />
        </mxCell>
        <mxCell id="XhDEkzcHzIU6UexOxhh8-47" value="1...*" style="text;html=1;align=center;verticalAlign=middle;resizable=0;points=[];autosize=1;strokeColor=none;fillColor=none;" parent="WIyWlLk6GJQsqaUBKTNV-1" vertex="1">
          <mxGeometry x="680" y="-5" width="40" height="30" as="geometry" />
        </mxCell>
      </root>
    </mxGraphModel>
  </diagram>
</mxfile>
